<mxfile host="Electron" agent="Mozilla/5.0 (Windows NT 10.0; Win64; x64) AppleWebKit/537.36 (KHTML, like Gecko) draw.io/26.1.1 Chrome/132.0.6834.210 Electron/34.3.3 Safari/537.36" version="26.1.1">
  <diagram id="prtHgNgQTEPvFCAcTncT" name="Page-1">
    <mxGraphModel dx="1990" dy="1095" grid="1" gridSize="10" guides="1" tooltips="1" connect="1" arrows="1" fold="1" page="1" pageScale="1" pageWidth="827" pageHeight="1169" math="0" shadow="0">
      <root>
        <mxCell id="0" />
        <mxCell id="1" parent="0" />
        <mxCell id="dNxyNK7c78bLwvsdeMH5-19" value="Player Movement/Execution Process" style="swimlane;html=1;childLayout=stackLayout;resizeParent=1;resizeParentMax=0;horizontal=0;startSize=20;horizontalStack=0;" parent="1" vertex="1">
          <mxGeometry x="100" y="200" width="1040" height="2130" as="geometry" />
        </mxCell>
        <mxCell id="dNxyNK7c78bLwvsdeMH5-20" value="Game Controller" style="swimlane;html=1;startSize=20;horizontal=0;" parent="dNxyNK7c78bLwvsdeMH5-19" vertex="1">
          <mxGeometry x="20" width="1020" height="260" as="geometry" />
        </mxCell>
        <mxCell id="RiEksx5ooV3Hi0hGjkgv-7" value="Click the direction key" style="shape=mxgraph.uml25.behaviorAction;html=1;rounded=1;absoluteArcSize=1;arcSize=10;align=left;spacingLeft=5;whiteSpace=wrap;" parent="dNxyNK7c78bLwvsdeMH5-20" vertex="1">
          <mxGeometry x="60" y="125" width="130" height="25" as="geometry" />
        </mxCell>
        <mxCell id="NvxcnexAdf7WvvJ3q8dT-101" value="" style="ellipse;" parent="dNxyNK7c78bLwvsdeMH5-20" vertex="1">
          <mxGeometry x="559.9998846593026" y="55.001176470588064" width="30" height="30" as="geometry" />
        </mxCell>
        <mxCell id="NvxcnexAdf7WvvJ3q8dT-172" value="Loop starts: Update every frame" style="shape=mxgraph.uml25.behaviorAction;html=1;rounded=1;absoluteArcSize=1;arcSize=10;align=left;spacingLeft=5;whiteSpace=wrap;" parent="dNxyNK7c78bLwvsdeMH5-20" vertex="1">
          <mxGeometry x="500" y="190" width="185" height="25" as="geometry" />
        </mxCell>
        <mxCell id="NvxcnexAdf7WvvJ3q8dT-216" style="edgeStyle=orthogonalEdgeStyle;rounded=0;orthogonalLoop=1;jettySize=auto;html=1;" parent="dNxyNK7c78bLwvsdeMH5-20" source="NvxcnexAdf7WvvJ3q8dT-101" edge="1">
          <mxGeometry relative="1" as="geometry">
            <mxPoint x="575" y="190" as="targetPoint" />
          </mxGeometry>
        </mxCell>
        <mxCell id="NvxcnexAdf7WvvJ3q8dT-222" style="edgeStyle=orthogonalEdgeStyle;rounded=0;orthogonalLoop=1;jettySize=auto;html=1;entryX=0;entryY=0.5;entryDx=0;entryDy=0;" parent="dNxyNK7c78bLwvsdeMH5-20" source="NvxcnexAdf7WvvJ3q8dT-221" target="NvxcnexAdf7WvvJ3q8dT-101" edge="1">
          <mxGeometry relative="1" as="geometry" />
        </mxCell>
        <mxCell id="NvxcnexAdf7WvvJ3q8dT-221" value="Play background music" style="shape=mxgraph.uml25.behaviorAction;html=1;rounded=1;absoluteArcSize=1;arcSize=10;align=left;spacingLeft=5;whiteSpace=wrap;" parent="dNxyNK7c78bLwvsdeMH5-20" vertex="1">
          <mxGeometry x="330" y="57.5" width="140" height="25" as="geometry" />
        </mxCell>
        <mxCell id="NvxcnexAdf7WvvJ3q8dT-224" style="edgeStyle=orthogonalEdgeStyle;rounded=0;orthogonalLoop=1;jettySize=auto;html=1;entryX=0;entryY=0.5;entryDx=0;entryDy=0;" parent="dNxyNK7c78bLwvsdeMH5-20" source="NvxcnexAdf7WvvJ3q8dT-223" target="NvxcnexAdf7WvvJ3q8dT-101" edge="1">
          <mxGeometry relative="1" as="geometry" />
        </mxCell>
        <mxCell id="NvxcnexAdf7WvvJ3q8dT-223" value="Load resource texture" style="shape=mxgraph.uml25.behaviorAction;html=1;rounded=1;absoluteArcSize=1;arcSize=10;align=left;spacingLeft=5;whiteSpace=wrap;" parent="dNxyNK7c78bLwvsdeMH5-20" vertex="1">
          <mxGeometry x="330" y="100" width="140" height="25" as="geometry" />
        </mxCell>
        <mxCell id="NvxcnexAdf7WvvJ3q8dT-226" style="edgeStyle=orthogonalEdgeStyle;rounded=0;orthogonalLoop=1;jettySize=auto;html=1;entryX=0;entryY=0.5;entryDx=0;entryDy=0;" parent="dNxyNK7c78bLwvsdeMH5-20" source="NvxcnexAdf7WvvJ3q8dT-225" target="NvxcnexAdf7WvvJ3q8dT-101" edge="1">
          <mxGeometry relative="1" as="geometry" />
        </mxCell>
        <mxCell id="NvxcnexAdf7WvvJ3q8dT-225" value="Initialize the entity" style="shape=mxgraph.uml25.behaviorAction;html=1;rounded=1;absoluteArcSize=1;arcSize=10;align=left;spacingLeft=5;whiteSpace=wrap;" parent="dNxyNK7c78bLwvsdeMH5-20" vertex="1">
          <mxGeometry x="330" y="150" width="140" height="25" as="geometry" />
        </mxCell>
        <mxCell id="NvxcnexAdf7WvvJ3q8dT-192" value="Game Entity" style="swimlane;html=1;startSize=20;horizontal=0;" parent="dNxyNK7c78bLwvsdeMH5-19" vertex="1">
          <mxGeometry x="20" y="260" width="1020" height="410" as="geometry" />
        </mxCell>
        <mxCell id="NvxcnexAdf7WvvJ3q8dT-194" value="All entity status information" style="rounded=0;whiteSpace=wrap;html=1;fontFamily=Helvetica;fontSize=12;fontColor=#000000;align=center;" parent="NvxcnexAdf7WvvJ3q8dT-192" vertex="1">
          <mxGeometry x="300" y="20" width="90" height="30" as="geometry" />
        </mxCell>
        <mxCell id="NvxcnexAdf7WvvJ3q8dT-195" value="All entity direction - coordinate information Player input direction information" style="rounded=0;whiteSpace=wrap;html=1;fontFamily=Helvetica;fontSize=12;fontColor=#000000;align=center;" parent="NvxcnexAdf7WvvJ3q8dT-192" vertex="1">
          <mxGeometry x="120" y="10" width="130" height="60" as="geometry" />
        </mxCell>
        <mxCell id="NvxcnexAdf7WvvJ3q8dT-165" value="Obtain entity information" style="shape=mxgraph.uml25.behaviorAction;html=1;rounded=1;absoluteArcSize=1;arcSize=10;align=left;spacingLeft=5;whiteSpace=wrap;" parent="NvxcnexAdf7WvvJ3q8dT-192" vertex="1">
          <mxGeometry x="260" y="100" width="140" height="25" as="geometry" />
        </mxCell>
        <mxCell id="NvxcnexAdf7WvvJ3q8dT-204" value="" style="html=1;verticalAlign=bottom;labelBackgroundColor=none;endArrow=block;endFill=1;dashed=1;rounded=0;exitX=0.5;exitY=1;exitDx=0;exitDy=0;entryX=0.373;entryY=0.042;entryDx=0;entryDy=0;entryPerimeter=0;" parent="NvxcnexAdf7WvvJ3q8dT-192" source="NvxcnexAdf7WvvJ3q8dT-194" target="NvxcnexAdf7WvvJ3q8dT-165" edge="1">
          <mxGeometry width="160" relative="1" as="geometry">
            <mxPoint x="250" y="190" as="sourcePoint" />
            <mxPoint x="410" y="190" as="targetPoint" />
          </mxGeometry>
        </mxCell>
        <mxCell id="NvxcnexAdf7WvvJ3q8dT-205" value="" style="html=1;verticalAlign=bottom;labelBackgroundColor=none;endArrow=block;endFill=1;dashed=1;rounded=0;exitX=1;exitY=0.5;exitDx=0;exitDy=0;entryX=0.373;entryY=0.042;entryDx=0;entryDy=0;entryPerimeter=0;" parent="NvxcnexAdf7WvvJ3q8dT-192" source="NvxcnexAdf7WvvJ3q8dT-195" target="NvxcnexAdf7WvvJ3q8dT-165" edge="1">
          <mxGeometry width="160" relative="1" as="geometry">
            <mxPoint x="250" y="190" as="sourcePoint" />
            <mxPoint x="410" y="190" as="targetPoint" />
          </mxGeometry>
        </mxCell>
        <mxCell id="NvxcnexAdf7WvvJ3q8dT-232" value="Player inputs direction information" style="rounded=0;whiteSpace=wrap;html=1;fontFamily=Helvetica;fontSize=12;fontColor=#000000;align=center;" parent="NvxcnexAdf7WvvJ3q8dT-192" vertex="1">
          <mxGeometry x="30" y="90" width="120" height="30" as="geometry" />
        </mxCell>
        <mxCell id="MzwR7XX259GG3YpAv0yA-23" value="" style="html=1;verticalAlign=bottom;labelBackgroundColor=none;endArrow=block;endFill=1;dashed=1;rounded=0;exitX=1;exitY=0.5;exitDx=0;exitDy=0;entryX=0.364;entryY=0.071;entryDx=0;entryDy=0;entryPerimeter=0;" parent="NvxcnexAdf7WvvJ3q8dT-192" source="NvxcnexAdf7WvvJ3q8dT-232" target="NvxcnexAdf7WvvJ3q8dT-165" edge="1">
          <mxGeometry width="160" relative="1" as="geometry">
            <mxPoint x="89" y="80" as="sourcePoint" />
            <mxPoint x="158.69000000000005" y="167" as="targetPoint" />
          </mxGeometry>
        </mxCell>
        <mxCell id="Qg8Gm3xI18R2EqKsObhd-26" value="Not dead" style="text;html=1;align=center;verticalAlign=middle;resizable=0;points=[];autosize=1;strokeColor=none;fillColor=none;" parent="NvxcnexAdf7WvvJ3q8dT-192" vertex="1">
          <mxGeometry x="434.75" y="200" width="70" height="30" as="geometry" />
        </mxCell>
        <mxCell id="Qg8Gm3xI18R2EqKsObhd-76" value="All entity priority information" style="rounded=0;whiteSpace=wrap;html=1;fontFamily=Helvetica;fontSize=12;fontColor=#000000;align=center;" parent="NvxcnexAdf7WvvJ3q8dT-192" vertex="1">
          <mxGeometry x="410" y="10" width="94.75" height="30" as="geometry" />
        </mxCell>
        <mxCell id="Qg8Gm3xI18R2EqKsObhd-77" value="" style="html=1;verticalAlign=bottom;labelBackgroundColor=none;endArrow=block;endFill=1;dashed=1;rounded=0;exitX=0.394;exitY=1.096;exitDx=0;exitDy=0;entryX=0.373;entryY=0.042;entryDx=0;entryDy=0;entryPerimeter=0;exitPerimeter=0;" parent="NvxcnexAdf7WvvJ3q8dT-192" source="Qg8Gm3xI18R2EqKsObhd-76" target="NvxcnexAdf7WvvJ3q8dT-165" edge="1">
          <mxGeometry width="160" relative="1" as="geometry">
            <mxPoint x="250" y="190" as="sourcePoint" />
            <mxPoint x="410" y="190" as="targetPoint" />
          </mxGeometry>
        </mxCell>
        <mxCell id="Qg8Gm3xI18R2EqKsObhd-96" value="All entity beat update flags (indicating whether the beat has been updated)" style="rounded=0;whiteSpace=wrap;html=1;fontFamily=Helvetica;fontSize=12;fontColor=#000000;align=center;" parent="NvxcnexAdf7WvvJ3q8dT-192" vertex="1">
          <mxGeometry x="430" y="60" width="150" height="50" as="geometry" />
        </mxCell>
        <mxCell id="Qg8Gm3xI18R2EqKsObhd-97" value="" style="html=1;verticalAlign=bottom;labelBackgroundColor=none;endArrow=block;endFill=1;dashed=1;rounded=0;exitX=0;exitY=0.5;exitDx=0;exitDy=0;entryX=0.373;entryY=0.042;entryDx=0;entryDy=0;entryPerimeter=0;" parent="NvxcnexAdf7WvvJ3q8dT-192" source="Qg8Gm3xI18R2EqKsObhd-96" target="NvxcnexAdf7WvvJ3q8dT-165" edge="1">
          <mxGeometry width="160" relative="1" as="geometry">
            <mxPoint x="250" y="190" as="sourcePoint" />
            <mxPoint x="410" y="190" as="targetPoint" />
          </mxGeometry>
        </mxCell>
        <mxCell id="Qg8Gm3xI18R2EqKsObhd-100" value="Set the entity update flag" style="shape=mxgraph.uml25.behaviorAction;html=1;rounded=1;absoluteArcSize=1;arcSize=10;align=left;spacingLeft=5;whiteSpace=wrap;" parent="NvxcnexAdf7WvvJ3q8dT-192" vertex="1">
          <mxGeometry x="230" y="350" width="150" height="25" as="geometry" />
        </mxCell>
        <mxCell id="dNxyNK7c78bLwvsdeMH5-21" value="Beat Detector" style="swimlane;html=1;startSize=20;horizontal=0;" parent="dNxyNK7c78bLwvsdeMH5-19" vertex="1">
          <mxGeometry x="20" y="670" width="1020" height="250" as="geometry" />
        </mxCell>
        <mxCell id="RiEksx5ooV3Hi0hGjkgv-25" value="" style="rhombus;" parent="dNxyNK7c78bLwvsdeMH5-21" vertex="1">
          <mxGeometry x="560" y="109.5" width="30" height="30" as="geometry" />
        </mxCell>
        <mxCell id="RiEksx5ooV3Hi0hGjkgv-29" value="Not at the window" style="text;html=1;align=center;verticalAlign=middle;resizable=0;points=[];autosize=1;strokeColor=none;fillColor=none;" parent="dNxyNK7c78bLwvsdeMH5-21" vertex="1">
          <mxGeometry x="575" y="90" width="120" height="30" as="geometry" />
        </mxCell>
        <mxCell id="NvxcnexAdf7WvvJ3q8dT-189" style="edgeStyle=orthogonalEdgeStyle;rounded=0;orthogonalLoop=1;jettySize=auto;html=1;entryX=0.5;entryY=0;entryDx=0;entryDy=0;exitX=0.397;exitY=0.976;exitDx=0;exitDy=0;exitPerimeter=0;" parent="dNxyNK7c78bLwvsdeMH5-21" source="NvxcnexAdf7WvvJ3q8dT-187" target="RiEksx5ooV3Hi0hGjkgv-25" edge="1">
          <mxGeometry relative="1" as="geometry" />
        </mxCell>
        <mxCell id="NvxcnexAdf7WvvJ3q8dT-187" value="Beat window detection" style="shape=mxgraph.uml25.behaviorAction;html=1;rounded=1;absoluteArcSize=1;arcSize=10;align=left;spacingLeft=5;whiteSpace=wrap;" parent="dNxyNK7c78bLwvsdeMH5-21" vertex="1">
          <mxGeometry x="520" y="15" width="140" height="25" as="geometry" />
        </mxCell>
        <mxCell id="MzwR7XX259GG3YpAv0yA-102" value="At the window" style="text;html=1;align=center;verticalAlign=middle;resizable=0;points=[];autosize=1;strokeColor=none;fillColor=none;" parent="dNxyNK7c78bLwvsdeMH5-21" vertex="1">
          <mxGeometry x="475" y="90" width="100" height="30" as="geometry" />
        </mxCell>
        <mxCell id="RiEksx5ooV3Hi0hGjkgv-11" value="Collision Detector" style="swimlane;html=1;startSize=20;horizontal=0;" parent="dNxyNK7c78bLwvsdeMH5-19" vertex="1">
          <mxGeometry x="20" y="920" width="1020" height="190" as="geometry" />
        </mxCell>
        <mxCell id="NvxcnexAdf7WvvJ3q8dT-248" style="edgeStyle=orthogonalEdgeStyle;rounded=0;orthogonalLoop=1;jettySize=auto;html=1;entryX=0.5;entryY=0;entryDx=0;entryDy=0;exitX=0.405;exitY=0.986;exitDx=0;exitDy=0;exitPerimeter=0;" parent="RiEksx5ooV3Hi0hGjkgv-11" source="RiEksx5ooV3Hi0hGjkgv-32" target="RiEksx5ooV3Hi0hGjkgv-34" edge="1">
          <mxGeometry relative="1" as="geometry" />
        </mxCell>
        <mxCell id="RiEksx5ooV3Hi0hGjkgv-32" value="Collision detection" style="shape=mxgraph.uml25.behaviorAction;html=1;rounded=1;absoluteArcSize=1;arcSize=10;align=left;spacingLeft=5;whiteSpace=wrap;" parent="RiEksx5ooV3Hi0hGjkgv-11" vertex="1">
          <mxGeometry x="130" y="60" width="110" height="25" as="geometry" />
        </mxCell>
        <mxCell id="RiEksx5ooV3Hi0hGjkgv-34" value="" style="rhombus;" parent="RiEksx5ooV3Hi0hGjkgv-11" vertex="1">
          <mxGeometry x="160" y="120" width="30" height="30" as="geometry" />
        </mxCell>
        <mxCell id="RiEksx5ooV3Hi0hGjkgv-62" value="Enemy entities in the target area" style="text;html=1;align=center;verticalAlign=middle;resizable=0;points=[];autosize=1;strokeColor=none;fillColor=none;" parent="RiEksx5ooV3Hi0hGjkgv-11" vertex="1">
          <mxGeometry x="170" y="100" width="200" height="30" as="geometry" />
        </mxCell>
        <mxCell id="MzwR7XX259GG3YpAv0yA-29" value="The target area is idle." style="text;html=1;align=center;verticalAlign=middle;resizable=0;points=[];autosize=1;strokeColor=none;fillColor=none;" parent="RiEksx5ooV3Hi0hGjkgv-11" vertex="1">
          <mxGeometry x="25" y="100" width="140" height="30" as="geometry" />
        </mxCell>
        <mxCell id="dNxyNK7c78bLwvsdeMH5-22" value="State Machine" style="swimlane;html=1;startSize=20;horizontal=0;" parent="dNxyNK7c78bLwvsdeMH5-19" vertex="1">
          <mxGeometry x="20" y="1110" width="1020" height="430" as="geometry" />
        </mxCell>
        <mxCell id="Qg8Gm3xI18R2EqKsObhd-121" style="edgeStyle=orthogonalEdgeStyle;rounded=0;orthogonalLoop=1;jettySize=auto;html=1;entryX=0;entryY=0.5;entryDx=0;entryDy=0;" parent="dNxyNK7c78bLwvsdeMH5-22" source="RiEksx5ooV3Hi0hGjkgv-41" target="Qg8Gm3xI18R2EqKsObhd-119" edge="1">
          <mxGeometry relative="1" as="geometry">
            <Array as="points">
              <mxPoint x="70" y="330" />
            </Array>
          </mxGeometry>
        </mxCell>
        <mxCell id="RiEksx5ooV3Hi0hGjkgv-41" value="Set entity state movement" style="shape=mxgraph.uml25.behaviorAction;html=1;rounded=1;absoluteArcSize=1;arcSize=10;align=left;spacingLeft=5;whiteSpace=wrap;" parent="dNxyNK7c78bLwvsdeMH5-22" vertex="1">
          <mxGeometry x="30" y="50" width="150" height="25" as="geometry" />
        </mxCell>
        <mxCell id="RiEksx5ooV3Hi0hGjkgv-58" value="Set the state of the hit entity to the hit state and set the entity state for movement." style="shape=mxgraph.uml25.behaviorAction;html=1;rounded=1;absoluteArcSize=1;arcSize=10;align=left;spacingLeft=5;whiteSpace=wrap;" parent="dNxyNK7c78bLwvsdeMH5-22" vertex="1">
          <mxGeometry x="215" y="60" width="240" height="30" as="geometry" />
        </mxCell>
        <mxCell id="RiEksx5ooV3Hi0hGjkgv-57" value="Attack the declaration area as the boundary" style="text;html=1;align=center;verticalAlign=middle;resizable=0;points=[];autosize=1;strokeColor=none;fillColor=none;" parent="dNxyNK7c78bLwvsdeMH5-22" vertex="1">
          <mxGeometry x="55" y="10" width="260" height="30" as="geometry" />
        </mxCell>
        <mxCell id="Qg8Gm3xI18R2EqKsObhd-120" style="edgeStyle=orthogonalEdgeStyle;rounded=0;orthogonalLoop=1;jettySize=auto;html=1;entryX=1;entryY=1;entryDx=0;entryDy=0;" parent="dNxyNK7c78bLwvsdeMH5-22" source="Qg8Gm3xI18R2EqKsObhd-30" target="Qg8Gm3xI18R2EqKsObhd-119" edge="1">
          <mxGeometry relative="1" as="geometry">
            <Array as="points">
              <mxPoint x="660" y="350" />
              <mxPoint x="182" y="350" />
            </Array>
          </mxGeometry>
        </mxCell>
        <mxCell id="Qg8Gm3xI18R2EqKsObhd-30" value="Set the state of the hit entity as dead" style="shape=mxgraph.uml25.behaviorAction;html=1;rounded=1;absoluteArcSize=1;arcSize=10;align=left;spacingLeft=5;whiteSpace=wrap;" parent="dNxyNK7c78bLwvsdeMH5-22" vertex="1">
          <mxGeometry x="460" y="50" width="210" height="25" as="geometry" />
        </mxCell>
        <mxCell id="Qg8Gm3xI18R2EqKsObhd-22" value="" style="edgeStyle=orthogonalEdgeStyle;rounded=0;orthogonalLoop=1;jettySize=auto;html=1;" parent="dNxyNK7c78bLwvsdeMH5-22" source="Qg8Gm3xI18R2EqKsObhd-19" target="Qg8Gm3xI18R2EqKsObhd-21" edge="1">
          <mxGeometry relative="1" as="geometry" />
        </mxCell>
        <mxCell id="Qg8Gm3xI18R2EqKsObhd-19" value="Injury settlement" style="shape=mxgraph.uml25.behaviorAction;html=1;rounded=1;absoluteArcSize=1;arcSize=10;align=left;spacingLeft=5;whiteSpace=wrap;" parent="dNxyNK7c78bLwvsdeMH5-22" vertex="1">
          <mxGeometry x="330" y="160" width="99" height="25" as="geometry" />
        </mxCell>
        <mxCell id="Qg8Gm3xI18R2EqKsObhd-36" style="edgeStyle=orthogonalEdgeStyle;rounded=0;orthogonalLoop=1;jettySize=auto;html=1;" parent="dNxyNK7c78bLwvsdeMH5-22" source="Qg8Gm3xI18R2EqKsObhd-21" target="Qg8Gm3xI18R2EqKsObhd-38" edge="1">
          <mxGeometry relative="1" as="geometry">
            <mxPoint x="210" y="236" as="targetPoint" />
          </mxGeometry>
        </mxCell>
        <mxCell id="Qg8Gm3xI18R2EqKsObhd-117" style="edgeStyle=orthogonalEdgeStyle;rounded=0;orthogonalLoop=1;jettySize=auto;html=1;entryX=1;entryY=0.5;entryDx=0;entryDy=0;" parent="dNxyNK7c78bLwvsdeMH5-22" source="Qg8Gm3xI18R2EqKsObhd-21" target="Qg8Gm3xI18R2EqKsObhd-119" edge="1">
          <mxGeometry relative="1" as="geometry">
            <mxPoint x="379.5" y="330" as="targetPoint" />
            <Array as="points">
              <mxPoint x="380" y="330" />
            </Array>
          </mxGeometry>
        </mxCell>
        <mxCell id="Qg8Gm3xI18R2EqKsObhd-21" value="" style="rhombus;whiteSpace=wrap;html=1;align=left;rounded=1;arcSize=10;spacingLeft=5;" parent="dNxyNK7c78bLwvsdeMH5-22" vertex="1">
          <mxGeometry x="354.25" y="210" width="50.5" height="52.5" as="geometry" />
        </mxCell>
        <mxCell id="Qg8Gm3xI18R2EqKsObhd-24" value="Game over" style="text;html=1;align=center;verticalAlign=middle;resizable=0;points=[];autosize=1;strokeColor=none;fillColor=none;" parent="dNxyNK7c78bLwvsdeMH5-22" vertex="1">
          <mxGeometry x="290" y="300" width="80" height="30" as="geometry" />
        </mxCell>
        <mxCell id="Qg8Gm3xI18R2EqKsObhd-37" value="Player dies" style="text;html=1;align=center;verticalAlign=middle;resizable=0;points=[];autosize=1;strokeColor=none;fillColor=none;" parent="dNxyNK7c78bLwvsdeMH5-22" vertex="1">
          <mxGeometry x="295" y="200" width="80" height="30" as="geometry" />
        </mxCell>
        <mxCell id="Qg8Gm3xI18R2EqKsObhd-38" value="" style="ellipse;html=1;shape=endState;fillColor=#000000;strokeColor=#ff0000;" parent="dNxyNK7c78bLwvsdeMH5-22" vertex="1">
          <mxGeometry x="315" y="270" width="30" height="30" as="geometry" />
        </mxCell>
        <mxCell id="MzwR7XX259GG3YpAv0yA-20" value="Set all entity attack declarations" style="shape=mxgraph.uml25.behaviorAction;html=1;rounded=1;absoluteArcSize=1;arcSize=10;align=left;spacingLeft=5;whiteSpace=wrap;" parent="dNxyNK7c78bLwvsdeMH5-22" vertex="1">
          <mxGeometry x="340" y="12.5" width="176" height="25" as="geometry" />
        </mxCell>
        <mxCell id="Qg8Gm3xI18R2EqKsObhd-112" style="edgeStyle=orthogonalEdgeStyle;rounded=0;orthogonalLoop=1;jettySize=auto;html=1;entryX=0.81;entryY=0.8;entryDx=0;entryDy=0;entryPerimeter=0;" parent="dNxyNK7c78bLwvsdeMH5-22" source="Qg8Gm3xI18R2EqKsObhd-21" target="Qg8Gm3xI18R2EqKsObhd-30" edge="1">
          <mxGeometry relative="1" as="geometry">
            <mxPoint x="630" y="80" as="targetPoint" />
            <Array as="points">
              <mxPoint x="630" y="236" />
            </Array>
          </mxGeometry>
        </mxCell>
        <mxCell id="Qg8Gm3xI18R2EqKsObhd-113" value="Death of non-player character" style="text;html=1;align=center;verticalAlign=middle;resizable=0;points=[];autosize=1;strokeColor=none;fillColor=none;" parent="dNxyNK7c78bLwvsdeMH5-22" vertex="1">
          <mxGeometry x="390" y="200" width="180" height="30" as="geometry" />
        </mxCell>
        <mxCell id="Qg8Gm3xI18R2EqKsObhd-118" value="No death" style="text;html=1;align=center;verticalAlign=middle;resizable=0;points=[];autosize=1;strokeColor=none;fillColor=none;" parent="dNxyNK7c78bLwvsdeMH5-22" vertex="1">
          <mxGeometry x="385" y="270" width="70" height="30" as="geometry" />
        </mxCell>
        <mxCell id="Qg8Gm3xI18R2EqKsObhd-119" value="" style="ellipse;fillColor=strokeColor;html=1;" parent="dNxyNK7c78bLwvsdeMH5-22" vertex="1">
          <mxGeometry x="165" y="320" width="20" height="20" as="geometry" />
        </mxCell>
        <mxCell id="Qg8Gm3xI18R2EqKsObhd-125" style="edgeStyle=orthogonalEdgeStyle;rounded=0;orthogonalLoop=1;jettySize=auto;html=1;entryX=0.532;entryY=0.083;entryDx=0;entryDy=0;entryPerimeter=0;" parent="dNxyNK7c78bLwvsdeMH5-22" target="MzwR7XX259GG3YpAv0yA-52" edge="1">
          <mxGeometry relative="1" as="geometry">
            <mxPoint x="579.9961904761903" y="-315.52380952380963" as="sourcePoint" />
            <mxPoint x="675.6500000000001" y="571.1249999999995" as="targetPoint" />
            <Array as="points">
              <mxPoint x="700" y="-316" />
              <mxPoint x="700" y="571" />
              <mxPoint x="674" y="571" />
            </Array>
          </mxGeometry>
        </mxCell>
        <mxCell id="6NTJvYpIYuZN6aeLRR0f-5" style="edgeStyle=orthogonalEdgeStyle;rounded=0;orthogonalLoop=1;jettySize=auto;html=1;entryX=0.524;entryY=0.116;entryDx=0;entryDy=0;entryPerimeter=0;" parent="dNxyNK7c78bLwvsdeMH5-22" source="RiEksx5ooV3Hi0hGjkgv-58" target="Qg8Gm3xI18R2EqKsObhd-19" edge="1">
          <mxGeometry relative="1" as="geometry" />
        </mxCell>
        <mxCell id="NvxcnexAdf7WvvJ3q8dT-214" value="" style="html=1;verticalAlign=bottom;labelBackgroundColor=none;endArrow=block;endFill=1;dashed=1;rounded=0;exitX=0.416;exitY=0.175;exitDx=0;exitDy=0;exitPerimeter=0;entryX=0.99;entryY=0.447;entryDx=0;entryDy=0;entryPerimeter=0;" parent="dNxyNK7c78bLwvsdeMH5-19" source="NvxcnexAdf7WvvJ3q8dT-178" target="NvxcnexAdf7WvvJ3q8dT-187" edge="1">
          <mxGeometry width="160" relative="1" as="geometry">
            <mxPoint x="833" y="2327" as="sourcePoint" />
            <mxPoint x="580" y="1233" as="targetPoint" />
            <Array as="points">
              <mxPoint x="773" y="696" />
            </Array>
          </mxGeometry>
        </mxCell>
        <mxCell id="NvxcnexAdf7WvvJ3q8dT-217" style="edgeStyle=orthogonalEdgeStyle;rounded=0;orthogonalLoop=1;jettySize=auto;html=1;" parent="dNxyNK7c78bLwvsdeMH5-19" source="NvxcnexAdf7WvvJ3q8dT-172" edge="1">
          <mxGeometry relative="1" as="geometry">
            <mxPoint x="606" y="686" as="targetPoint" />
            <Array as="points">
              <mxPoint x="606" y="370" />
              <mxPoint x="606" y="370" />
            </Array>
          </mxGeometry>
        </mxCell>
        <mxCell id="NvxcnexAdf7WvvJ3q8dT-218" style="edgeStyle=orthogonalEdgeStyle;rounded=0;orthogonalLoop=1;jettySize=auto;html=1;entryX=1.012;entryY=0.532;entryDx=0;entryDy=0;entryPerimeter=0;exitX=0.449;exitY=0.904;exitDx=0;exitDy=0;exitPerimeter=0;" parent="dNxyNK7c78bLwvsdeMH5-19" source="MzwR7XX259GG3YpAv0yA-52" target="NvxcnexAdf7WvvJ3q8dT-75" edge="1">
          <mxGeometry relative="1" as="geometry">
            <Array as="points">
              <mxPoint x="700" y="1893" />
            </Array>
            <mxPoint x="885" y="1425" as="sourcePoint" />
          </mxGeometry>
        </mxCell>
        <mxCell id="NvxcnexAdf7WvvJ3q8dT-230" value="" style="html=1;verticalAlign=bottom;labelBackgroundColor=none;endArrow=block;endFill=1;dashed=1;rounded=0;exitX=0.256;exitY=0.993;exitDx=0;exitDy=0;exitPerimeter=0;entryX=0.5;entryY=0;entryDx=0;entryDy=0;" parent="dNxyNK7c78bLwvsdeMH5-19" source="RiEksx5ooV3Hi0hGjkgv-7" target="NvxcnexAdf7WvvJ3q8dT-232" edge="1">
          <mxGeometry width="160" relative="1" as="geometry">
            <mxPoint x="270" y="450" as="sourcePoint" />
            <mxPoint x="150" y="310" as="targetPoint" />
          </mxGeometry>
        </mxCell>
        <mxCell id="MzwR7XX259GG3YpAv0yA-28" style="edgeStyle=orthogonalEdgeStyle;rounded=0;orthogonalLoop=1;jettySize=auto;html=1;entryX=0.133;entryY=0;entryDx=0;entryDy=0;entryPerimeter=0;exitX=0;exitY=0.5;exitDx=0;exitDy=0;" parent="dNxyNK7c78bLwvsdeMH5-19" source="RiEksx5ooV3Hi0hGjkgv-34" target="RiEksx5ooV3Hi0hGjkgv-41" edge="1">
          <mxGeometry relative="1" as="geometry" />
        </mxCell>
        <mxCell id="MzwR7XX259GG3YpAv0yA-57" style="edgeStyle=orthogonalEdgeStyle;rounded=0;orthogonalLoop=1;jettySize=auto;html=1;entryX=0.5;entryY=0;entryDx=0;entryDy=0;" parent="dNxyNK7c78bLwvsdeMH5-19" source="RiEksx5ooV3Hi0hGjkgv-34" target="Qg8Gm3xI18R2EqKsObhd-119" edge="1">
          <mxGeometry relative="1" as="geometry">
            <mxPoint x="195" y="1305" as="targetPoint" />
          </mxGeometry>
        </mxCell>
        <mxCell id="NvxcnexAdf7WvvJ3q8dT-59" value="Audio Tools" style="swimlane;html=1;startSize=20;horizontal=0;" parent="dNxyNK7c78bLwvsdeMH5-19" vertex="1">
          <mxGeometry x="20" y="1540" width="1020" height="310" as="geometry" />
        </mxCell>
        <mxCell id="NvxcnexAdf7WvvJ3q8dT-90" value="Execution status corresponds to audio method" style="shape=mxgraph.uml25.behaviorAction;html=1;rounded=1;absoluteArcSize=1;arcSize=10;align=left;spacingLeft=5;whiteSpace=wrap;" parent="NvxcnexAdf7WvvJ3q8dT-59" vertex="1">
          <mxGeometry x="40" y="46" width="270" height="37.5" as="geometry" />
        </mxCell>
        <mxCell id="NvxcnexAdf7WvvJ3q8dT-177" value="" style="html=1;verticalAlign=bottom;labelBackgroundColor=none;endArrow=block;endFill=1;dashed=1;rounded=0;exitX=0.994;exitY=0.17;exitDx=0;exitDy=0;exitPerimeter=0;entryX=0.5;entryY=1;entryDx=0;entryDy=0;" parent="NvxcnexAdf7WvvJ3q8dT-59" source="MzwR7XX259GG3YpAv0yA-52" target="NvxcnexAdf7WvvJ3q8dT-178" edge="1">
          <mxGeometry width="160" relative="1" as="geometry">
            <mxPoint x="863.8299999999999" y="123.15000000000009" as="sourcePoint" />
            <mxPoint x="560" y="83" as="targetPoint" />
            <Array as="points" />
          </mxGeometry>
        </mxCell>
        <mxCell id="NvxcnexAdf7WvvJ3q8dT-178" value="Song location information" style="rounded=0;whiteSpace=wrap;html=1;fontFamily=Helvetica;fontSize=12;fontColor=#000000;align=center;" parent="NvxcnexAdf7WvvJ3q8dT-59" vertex="1">
          <mxGeometry x="720" y="16" width="80" height="30" as="geometry" />
        </mxCell>
        <mxCell id="MzwR7XX259GG3YpAv0yA-52" value="Update the position of the background music" style="shape=mxgraph.uml25.behaviorAction;html=1;rounded=1;absoluteArcSize=1;arcSize=10;align=left;spacingLeft=5;whiteSpace=wrap;" parent="NvxcnexAdf7WvvJ3q8dT-59" vertex="1">
          <mxGeometry x="600" y="150" width="140" height="36" as="geometry" />
        </mxCell>
        <mxCell id="NvxcnexAdf7WvvJ3q8dT-91" value="Play the corresponding status sound effect" style="shape=mxgraph.uml25.behaviorAction;html=1;rounded=1;absoluteArcSize=1;arcSize=10;align=left;spacingLeft=5;whiteSpace=wrap;" parent="NvxcnexAdf7WvvJ3q8dT-59" vertex="1">
          <mxGeometry x="80" y="142.5" width="250" height="25" as="geometry" />
        </mxCell>
        <mxCell id="Qg8Gm3xI18R2EqKsObhd-126" style="edgeStyle=orthogonalEdgeStyle;rounded=0;orthogonalLoop=1;jettySize=auto;html=1;entryX=0.383;entryY=0.015;entryDx=0;entryDy=0;entryPerimeter=0;" parent="NvxcnexAdf7WvvJ3q8dT-59" source="NvxcnexAdf7WvvJ3q8dT-90" target="NvxcnexAdf7WvvJ3q8dT-91" edge="1">
          <mxGeometry relative="1" as="geometry" />
        </mxCell>
        <mxCell id="NvxcnexAdf7WvvJ3q8dT-51" value="Animation Tools" style="swimlane;html=1;startSize=20;horizontal=0;" parent="dNxyNK7c78bLwvsdeMH5-19" vertex="1">
          <mxGeometry x="20" y="1850" width="1020" height="280" as="geometry" />
        </mxCell>
        <mxCell id="NvxcnexAdf7WvvJ3q8dT-75" value="Render" style="shape=mxgraph.uml25.behaviorAction;html=1;rounded=1;absoluteArcSize=1;arcSize=10;align=left;spacingLeft=5;whiteSpace=wrap;" parent="NvxcnexAdf7WvvJ3q8dT-51" vertex="1">
          <mxGeometry x="440" y="30" width="50" height="25" as="geometry" />
        </mxCell>
        <mxCell id="MzwR7XX259GG3YpAv0yA-98" style="edgeStyle=orthogonalEdgeStyle;rounded=0;orthogonalLoop=1;jettySize=auto;html=1;exitX=0.454;exitY=1.011;exitDx=0;exitDy=0;exitPerimeter=0;entryX=1;entryY=0.492;entryDx=0;entryDy=0;entryPerimeter=0;" parent="dNxyNK7c78bLwvsdeMH5-19" source="NvxcnexAdf7WvvJ3q8dT-75" target="NvxcnexAdf7WvvJ3q8dT-172" edge="1">
          <mxGeometry relative="1" as="geometry">
            <mxPoint x="860" y="1090" as="targetPoint" />
            <mxPoint x="539.928571428572" y="1927.4285714285716" as="sourcePoint" />
            <Array as="points">
              <mxPoint x="492" y="1970" />
              <mxPoint x="861" y="1970" />
              <mxPoint x="861" y="202" />
            </Array>
          </mxGeometry>
        </mxCell>
        <mxCell id="Qg8Gm3xI18R2EqKsObhd-98" style="edgeStyle=orthogonalEdgeStyle;rounded=0;orthogonalLoop=1;jettySize=auto;html=1;entryX=1.004;entryY=0.492;entryDx=0;entryDy=0;entryPerimeter=0;" parent="dNxyNK7c78bLwvsdeMH5-19" source="RiEksx5ooV3Hi0hGjkgv-25" target="NvxcnexAdf7WvvJ3q8dT-165" edge="1">
          <mxGeometry relative="1" as="geometry">
            <Array as="points">
              <mxPoint x="500" y="794" />
              <mxPoint x="500" y="372" />
            </Array>
          </mxGeometry>
        </mxCell>
        <mxCell id="Qg8Gm3xI18R2EqKsObhd-123" style="edgeStyle=orthogonalEdgeStyle;rounded=0;orthogonalLoop=1;jettySize=auto;html=1;entryX=0.997;entryY=0.488;entryDx=0;entryDy=0;entryPerimeter=0;" parent="dNxyNK7c78bLwvsdeMH5-19" source="Qg8Gm3xI18R2EqKsObhd-100" target="NvxcnexAdf7WvvJ3q8dT-90" edge="1">
          <mxGeometry relative="1" as="geometry">
            <Array as="points">
              <mxPoint x="480" y="622" />
              <mxPoint x="480" y="830" />
              <mxPoint x="710" y="830" />
              <mxPoint x="710" y="1604" />
            </Array>
          </mxGeometry>
        </mxCell>
        <mxCell id="Qg8Gm3xI18R2EqKsObhd-124" style="edgeStyle=orthogonalEdgeStyle;rounded=0;orthogonalLoop=1;jettySize=auto;html=1;entryX=0.382;entryY=0;entryDx=0;entryDy=0;entryPerimeter=0;" parent="dNxyNK7c78bLwvsdeMH5-19" source="MzwR7XX259GG3YpAv0yA-20" target="RiEksx5ooV3Hi0hGjkgv-32" edge="1">
          <mxGeometry relative="1" as="geometry">
            <Array as="points">
              <mxPoint x="460" y="960" />
              <mxPoint x="192" y="960" />
            </Array>
            <mxPoint x="140" y="940" as="targetPoint" />
          </mxGeometry>
        </mxCell>
        <mxCell id="Qg8Gm3xI18R2EqKsObhd-127" style="edgeStyle=orthogonalEdgeStyle;rounded=0;orthogonalLoop=1;jettySize=auto;html=1;entryX=-0.002;entryY=0.586;entryDx=0;entryDy=0;entryPerimeter=0;" parent="dNxyNK7c78bLwvsdeMH5-19" source="NvxcnexAdf7WvvJ3q8dT-91" target="NvxcnexAdf7WvvJ3q8dT-75" edge="1">
          <mxGeometry relative="1" as="geometry">
            <Array as="points">
              <mxPoint x="212" y="1895" />
            </Array>
          </mxGeometry>
        </mxCell>
        <mxCell id="Qg8Gm3xI18R2EqKsObhd-122" style="edgeStyle=orthogonalEdgeStyle;rounded=0;orthogonalLoop=1;jettySize=auto;html=1;entryX=0.339;entryY=1.034;entryDx=0;entryDy=0;entryPerimeter=0;exitX=0.5;exitY=1;exitDx=0;exitDy=0;" parent="dNxyNK7c78bLwvsdeMH5-19" source="Qg8Gm3xI18R2EqKsObhd-119" target="Qg8Gm3xI18R2EqKsObhd-100" edge="1">
          <mxGeometry relative="1" as="geometry">
            <Array as="points">
              <mxPoint x="195" y="1520" />
              <mxPoint x="700" y="1520" />
              <mxPoint x="700" y="870" />
              <mxPoint x="300" y="870" />
              <mxPoint x="300" y="750" />
            </Array>
          </mxGeometry>
        </mxCell>
        <mxCell id="6NTJvYpIYuZN6aeLRR0f-2" style="edgeStyle=orthogonalEdgeStyle;rounded=0;orthogonalLoop=1;jettySize=auto;html=1;exitX=1;exitY=0.5;exitDx=0;exitDy=0;entryX=0.486;entryY=-0.08;entryDx=0;entryDy=0;entryPerimeter=0;" parent="dNxyNK7c78bLwvsdeMH5-19" source="RiEksx5ooV3Hi0hGjkgv-34" target="RiEksx5ooV3Hi0hGjkgv-58" edge="1">
          <mxGeometry relative="1" as="geometry" />
        </mxCell>
        <mxCell id="6NTJvYpIYuZN6aeLRR0f-4" style="edgeStyle=orthogonalEdgeStyle;rounded=0;orthogonalLoop=1;jettySize=auto;html=1;entryX=0.696;entryY=0.054;entryDx=0;entryDy=0;entryPerimeter=0;" parent="dNxyNK7c78bLwvsdeMH5-19" source="NvxcnexAdf7WvvJ3q8dT-165" target="MzwR7XX259GG3YpAv0yA-20" edge="1">
          <mxGeometry relative="1" as="geometry">
            <Array as="points">
              <mxPoint x="190" y="373" />
              <mxPoint x="190" y="940" />
              <mxPoint x="483" y="940" />
            </Array>
          </mxGeometry>
        </mxCell>
        <mxCell id="NvxcnexAdf7WvvJ3q8dT-249" value="This entity is ready." style="strokeWidth=2;html=1;shape=mxgraph.flowchart.start_1;whiteSpace=wrap;" parent="1" vertex="1">
          <mxGeometry x="1647" y="820" width="100" height="60" as="geometry" />
        </mxCell>
        <mxCell id="NvxcnexAdf7WvvJ3q8dT-250" value="This entity&#39;s attack declaration" style="strokeWidth=2;html=1;shape=mxgraph.flowchart.start_1;whiteSpace=wrap;" parent="1" vertex="1">
          <mxGeometry x="1340" y="1030" width="109" height="60" as="geometry" />
        </mxCell>
        <mxCell id="NvxcnexAdf7WvvJ3q8dT-252" value="When the beat window arrives, this entity attempts to move." style="text;html=1;align=center;verticalAlign=middle;resizable=0;points=[];autosize=1;strokeColor=#6c8ebf;fillColor=#dae8fc;" parent="1" vertex="1">
          <mxGeometry x="1160" y="870" width="340" height="30" as="geometry" />
        </mxCell>
        <mxCell id="NvxcnexAdf7WvvJ3q8dT-267" value="" style="html=1;verticalAlign=bottom;labelBackgroundColor=none;endArrow=block;endFill=1;rounded=0;exitX=0;exitY=0.5;exitDx=0;exitDy=0;exitPerimeter=0;entryX=0.53;entryY=-0.072;entryDx=0;entryDy=0;entryPerimeter=0;" parent="1" source="NvxcnexAdf7WvvJ3q8dT-249" target="NvxcnexAdf7WvvJ3q8dT-252" edge="1">
          <mxGeometry width="160" relative="1" as="geometry">
            <mxPoint x="1547" y="905" as="sourcePoint" />
            <mxPoint x="1707" y="905" as="targetPoint" />
          </mxGeometry>
        </mxCell>
        <mxCell id="NvxcnexAdf7WvvJ3q8dT-268" value="" style="html=1;verticalAlign=bottom;labelBackgroundColor=none;endArrow=block;endFill=1;rounded=0;exitX=0.487;exitY=0.926;exitDx=0;exitDy=0;exitPerimeter=0;entryX=0.397;entryY=-0.059;entryDx=0;entryDy=0;entryPerimeter=0;" parent="1" source="NvxcnexAdf7WvvJ3q8dT-252" target="NvxcnexAdf7WvvJ3q8dT-250" edge="1">
          <mxGeometry width="160" relative="1" as="geometry">
            <mxPoint x="1547" y="905" as="sourcePoint" />
            <mxPoint x="1707" y="905" as="targetPoint" />
          </mxGeometry>
        </mxCell>
        <mxCell id="NvxcnexAdf7WvvJ3q8dT-274" value="This entity was hit." style="strokeWidth=2;html=1;shape=mxgraph.flowchart.start_1;whiteSpace=wrap;" parent="1" vertex="1">
          <mxGeometry x="1767" y="1010" width="103" height="60" as="geometry" />
        </mxCell>
        <mxCell id="NvxcnexAdf7WvvJ3q8dT-278" value="This entity is in contact with the dangerous area." style="text;html=1;align=center;verticalAlign=middle;resizable=0;points=[];autosize=1;strokeColor=#6c8ebf;fillColor=#dae8fc;" parent="1" vertex="1">
          <mxGeometry x="1475" y="1060" width="280" height="30" as="geometry" />
        </mxCell>
        <mxCell id="NvxcnexAdf7WvvJ3q8dT-280" value="" style="html=1;verticalAlign=bottom;labelBackgroundColor=none;endArrow=block;endFill=1;rounded=0;entryX=0;entryY=0.5;entryDx=0;entryDy=0;entryPerimeter=0;exitX=0.985;exitY=0.685;exitDx=0;exitDy=0;exitPerimeter=0;" parent="1" source="NvxcnexAdf7WvvJ3q8dT-278" target="NvxcnexAdf7WvvJ3q8dT-274" edge="1">
          <mxGeometry width="160" relative="1" as="geometry">
            <mxPoint x="1685" y="1040" as="sourcePoint" />
            <mxPoint x="1847" y="1065" as="targetPoint" />
          </mxGeometry>
        </mxCell>
        <mxCell id="MzwR7XX259GG3YpAv0yA-4" value="" style="html=1;verticalAlign=bottom;labelBackgroundColor=none;endArrow=block;endFill=1;rounded=0;entryX=0.29;entryY=1.033;entryDx=0;entryDy=0;entryPerimeter=0;exitX=0.736;exitY=0.035;exitDx=0;exitDy=0;exitPerimeter=0;" parent="1" source="NvxcnexAdf7WvvJ3q8dT-250" target="MzwR7XX259GG3YpAv0yA-5" edge="1">
          <mxGeometry width="160" relative="1" as="geometry">
            <mxPoint x="1457" y="1059" as="sourcePoint" />
            <mxPoint x="1567" y="975" as="targetPoint" />
          </mxGeometry>
        </mxCell>
        <mxCell id="MzwR7XX259GG3YpAv0yA-5" value="&lt;div&gt;Declaration area (danger zone) contains hostile entities&lt;/div&gt;&lt;div&gt;Trigger danger zone&lt;/div&gt;" style="text;html=1;align=center;verticalAlign=middle;resizable=0;points=[];autosize=1;fillColor=#dae8fc;strokeColor=#6c8ebf;" parent="1" vertex="1">
          <mxGeometry x="1392" y="910" width="320" height="40" as="geometry" />
        </mxCell>
        <mxCell id="MzwR7XX259GG3YpAv0yA-6" value="" style="html=1;verticalAlign=bottom;labelBackgroundColor=none;endArrow=block;endFill=1;rounded=0;entryX=0.069;entryY=0.724;entryDx=0;entryDy=0;entryPerimeter=0;exitX=0.577;exitY=0.048;exitDx=0;exitDy=0;exitPerimeter=0;" parent="1" source="MzwR7XX259GG3YpAv0yA-5" target="NvxcnexAdf7WvvJ3q8dT-249" edge="1">
          <mxGeometry width="160" relative="1" as="geometry">
            <mxPoint x="1457" y="1059" as="sourcePoint" />
            <mxPoint x="1567" y="975" as="targetPoint" />
          </mxGeometry>
        </mxCell>
        <mxCell id="MzwR7XX259GG3YpAv0yA-9" value="This entity moves." style="strokeWidth=2;html=1;shape=mxgraph.flowchart.start_1;whiteSpace=wrap;" parent="1" vertex="1">
          <mxGeometry x="1735" y="1250" width="100" height="60" as="geometry" />
        </mxCell>
        <mxCell id="MzwR7XX259GG3YpAv0yA-10" value="" style="html=1;verticalAlign=bottom;labelBackgroundColor=none;endArrow=block;endFill=1;rounded=0;entryX=0.075;entryY=0.233;entryDx=0;entryDy=0;entryPerimeter=0;exitX=1.026;exitY=0.571;exitDx=0;exitDy=0;exitPerimeter=0;" parent="1" source="Qg8Gm3xI18R2EqKsObhd-9" target="MzwR7XX259GG3YpAv0yA-9" edge="1">
          <mxGeometry width="160" relative="1" as="geometry">
            <mxPoint x="1457" y="1059" as="sourcePoint" />
            <mxPoint x="1567" y="975" as="targetPoint" />
          </mxGeometry>
        </mxCell>
        <mxCell id="MzwR7XX259GG3YpAv0yA-13" value="" style="curved=1;endArrow=classic;html=1;rounded=0;exitX=1;exitY=0.5;exitDx=0;exitDy=0;exitPerimeter=0;entryX=1.011;entryY=0.658;entryDx=0;entryDy=0;entryPerimeter=0;" parent="1" source="Qg8Gm3xI18R2EqKsObhd-7" target="NvxcnexAdf7WvvJ3q8dT-249" edge="1">
          <mxGeometry width="50" height="50" relative="1" as="geometry">
            <mxPoint x="1735" y="1250" as="sourcePoint" />
            <mxPoint x="1785" y="1200" as="targetPoint" />
            <Array as="points" />
          </mxGeometry>
        </mxCell>
        <mxCell id="Qg8Gm3xI18R2EqKsObhd-3" value="Initial state" style="text;html=1;align=center;verticalAlign=middle;resizable=0;points=[];autosize=1;strokeColor=none;fillColor=none;" parent="1" vertex="1">
          <mxGeometry x="1255" y="1045" width="80" height="30" as="geometry" />
        </mxCell>
        <mxCell id="Qg8Gm3xI18R2EqKsObhd-4" value="" style="html=1;verticalAlign=bottom;labelBackgroundColor=none;endArrow=block;endFill=1;rounded=0;exitX=1;exitY=0.5;exitDx=0;exitDy=0;exitPerimeter=0;entryX=0.035;entryY=0.471;entryDx=0;entryDy=0;entryPerimeter=0;" parent="1" source="NvxcnexAdf7WvvJ3q8dT-250" target="NvxcnexAdf7WvvJ3q8dT-278" edge="1">
          <mxGeometry width="160" relative="1" as="geometry">
            <mxPoint x="1657" y="860" as="sourcePoint" />
            <mxPoint x="1777" y="935" as="targetPoint" />
          </mxGeometry>
        </mxCell>
        <mxCell id="Qg8Gm3xI18R2EqKsObhd-8" value="" style="curved=1;endArrow=classic;html=1;rounded=0;exitX=0.502;exitY=0.129;exitDx=0;exitDy=0;exitPerimeter=0;entryX=0.586;entryY=1.078;entryDx=0;entryDy=0;entryPerimeter=0;" parent="1" source="Qg8Gm3xI18R2EqKsObhd-104" target="Qg8Gm3xI18R2EqKsObhd-7" edge="1">
          <mxGeometry width="50" height="50" relative="1" as="geometry">
            <mxPoint x="1647" y="1170" as="sourcePoint" />
            <mxPoint x="1738" y="842" as="targetPoint" />
            <Array as="points" />
          </mxGeometry>
        </mxCell>
        <mxCell id="Qg8Gm3xI18R2EqKsObhd-7" value="This entity has completed the movement." style="text;html=1;align=center;verticalAlign=middle;resizable=0;points=[];autosize=1;strokeColor=#6c8ebf;fillColor=#dae8fc;" parent="1" vertex="1">
          <mxGeometry x="1830" y="860" width="240" height="30" as="geometry" />
        </mxCell>
        <mxCell id="Qg8Gm3xI18R2EqKsObhd-10" value="" style="html=1;verticalAlign=bottom;labelBackgroundColor=none;endArrow=block;endFill=1;rounded=0;entryX=0.461;entryY=-0.015;entryDx=0;entryDy=0;entryPerimeter=0;exitX=0.254;exitY=1.029;exitDx=0;exitDy=0;exitPerimeter=0;" parent="1" source="Qg8Gm3xI18R2EqKsObhd-5" target="Qg8Gm3xI18R2EqKsObhd-9" edge="1">
          <mxGeometry width="160" relative="1" as="geometry">
            <mxPoint x="1421" y="1087" as="sourcePoint" />
            <mxPoint x="1555" y="1154" as="targetPoint" />
          </mxGeometry>
        </mxCell>
        <mxCell id="Qg8Gm3xI18R2EqKsObhd-9" value="&lt;div&gt;Target area security&lt;/div&gt;&lt;div&gt;Attack rollback&lt;/div&gt;" style="text;html=1;align=center;verticalAlign=middle;resizable=0;points=[];autosize=1;strokeColor=#6c8ebf;fillColor=#dae8fc;" parent="1" vertex="1">
          <mxGeometry x="1570" y="1220" width="130" height="40" as="geometry" />
        </mxCell>
        <mxCell id="Qg8Gm3xI18R2EqKsObhd-11" value="This entity did not enter the dangerous area." style="text;html=1;align=center;verticalAlign=middle;resizable=0;points=[];autosize=1;strokeColor=#6c8ebf;fillColor=#dae8fc;" parent="1" vertex="1">
          <mxGeometry x="1370" y="1140" width="260" height="30" as="geometry" />
        </mxCell>
        <mxCell id="Qg8Gm3xI18R2EqKsObhd-12" value="" style="html=1;verticalAlign=bottom;labelBackgroundColor=none;endArrow=block;endFill=1;rounded=0;exitX=0.855;exitY=0.855;exitDx=0;exitDy=0;exitPerimeter=0;entryX=0.519;entryY=0.003;entryDx=0;entryDy=0;entryPerimeter=0;" parent="1" source="NvxcnexAdf7WvvJ3q8dT-250" target="Qg8Gm3xI18R2EqKsObhd-11" edge="1">
          <mxGeometry width="160" relative="1" as="geometry">
            <mxPoint x="1657" y="860" as="sourcePoint" />
            <mxPoint x="1777" y="935" as="targetPoint" />
          </mxGeometry>
        </mxCell>
        <mxCell id="Qg8Gm3xI18R2EqKsObhd-13" value="" style="html=1;verticalAlign=bottom;labelBackgroundColor=none;endArrow=block;endFill=1;rounded=0;exitX=0.508;exitY=0.977;exitDx=0;exitDy=0;exitPerimeter=0;entryX=0.354;entryY=-0.051;entryDx=0;entryDy=0;entryPerimeter=0;" parent="1" source="Qg8Gm3xI18R2EqKsObhd-11" target="Qg8Gm3xI18R2EqKsObhd-9" edge="1">
          <mxGeometry width="160" relative="1" as="geometry">
            <mxPoint x="1657" y="860" as="sourcePoint" />
            <mxPoint x="1777" y="935" as="targetPoint" />
          </mxGeometry>
        </mxCell>
        <mxCell id="Qg8Gm3xI18R2EqKsObhd-14" value="" style="html=1;verticalAlign=bottom;labelBackgroundColor=none;endArrow=block;endFill=1;rounded=0;entryX=0.481;entryY=0.15;entryDx=0;entryDy=0;entryPerimeter=0;exitX=0.5;exitY=1;exitDx=0;exitDy=0;exitPerimeter=0;" parent="1" source="NvxcnexAdf7WvvJ3q8dT-274" target="Qg8Gm3xI18R2EqKsObhd-5" edge="1">
          <mxGeometry width="160" relative="1" as="geometry">
            <mxPoint x="1745" y="1100" as="sourcePoint" />
            <mxPoint x="1631" y="1219" as="targetPoint" />
          </mxGeometry>
        </mxCell>
        <mxCell id="Qg8Gm3xI18R2EqKsObhd-5" value="This entity&#39;s damage settlement" style="text;html=1;align=center;verticalAlign=middle;resizable=0;points=[];autosize=1;strokeColor=#6c8ebf;fillColor=#dae8fc;" parent="1" vertex="1">
          <mxGeometry x="1655" y="1140" width="190" height="30" as="geometry" />
        </mxCell>
        <mxCell id="Qg8Gm3xI18R2EqKsObhd-15" value="This entity has passed away." style="strokeWidth=2;html=1;shape=mxgraph.flowchart.start_1;whiteSpace=wrap;" parent="1" vertex="1">
          <mxGeometry x="1855" y="1150" width="100" height="60" as="geometry" />
        </mxCell>
        <mxCell id="Qg8Gm3xI18R2EqKsObhd-17" value="" style="html=1;verticalAlign=bottom;labelBackgroundColor=none;endArrow=block;endFill=1;rounded=0;entryX=0;entryY=0.5;entryDx=0;entryDy=0;entryPerimeter=0;exitX=0.996;exitY=0.637;exitDx=0;exitDy=0;exitPerimeter=0;" parent="1" source="Qg8Gm3xI18R2EqKsObhd-5" target="Qg8Gm3xI18R2EqKsObhd-15" edge="1">
          <mxGeometry width="160" relative="1" as="geometry">
            <mxPoint x="1421" y="1087" as="sourcePoint" />
            <mxPoint x="1555" y="1154" as="targetPoint" />
          </mxGeometry>
        </mxCell>
        <mxCell id="Qg8Gm3xI18R2EqKsObhd-18" value="Final state" style="text;html=1;align=center;verticalAlign=middle;resizable=0;points=[];autosize=1;strokeColor=none;fillColor=none;" parent="1" vertex="1">
          <mxGeometry x="1870" y="1110" width="80" height="30" as="geometry" />
        </mxCell>
        <mxCell id="Qg8Gm3xI18R2EqKsObhd-43" value="Target area boundary" style="text;html=1;align=center;verticalAlign=middle;resizable=0;points=[];autosize=1;strokeColor=#6c8ebf;fillColor=#dae8fc;" parent="1" vertex="1">
          <mxGeometry x="1615" y="970" width="140" height="30" as="geometry" />
        </mxCell>
        <mxCell id="Qg8Gm3xI18R2EqKsObhd-44" value="" style="html=1;verticalAlign=bottom;labelBackgroundColor=none;endArrow=block;endFill=1;rounded=0;exitX=1;exitY=0.5;exitDx=0;exitDy=0;exitPerimeter=0;entryX=-0.049;entryY=0.531;entryDx=0;entryDy=0;entryPerimeter=0;" parent="1" source="NvxcnexAdf7WvvJ3q8dT-250" target="Qg8Gm3xI18R2EqKsObhd-43" edge="1">
          <mxGeometry width="160" relative="1" as="geometry">
            <mxPoint x="1657" y="860" as="sourcePoint" />
            <mxPoint x="1777" y="935" as="targetPoint" />
          </mxGeometry>
        </mxCell>
        <mxCell id="Qg8Gm3xI18R2EqKsObhd-45" value="" style="html=1;verticalAlign=bottom;labelBackgroundColor=none;endArrow=block;endFill=1;rounded=0;exitX=1.026;exitY=0.486;exitDx=0;exitDy=0;exitPerimeter=0;entryX=-0.035;entryY=0.605;entryDx=0;entryDy=0;entryPerimeter=0;" parent="1" source="Qg8Gm3xI18R2EqKsObhd-43" target="Qg8Gm3xI18R2EqKsObhd-109" edge="1">
          <mxGeometry width="160" relative="1" as="geometry">
            <mxPoint x="1657" y="860" as="sourcePoint" />
            <mxPoint x="1777" y="935" as="targetPoint" />
          </mxGeometry>
        </mxCell>
        <mxCell id="Qg8Gm3xI18R2EqKsObhd-105" value="" style="curved=1;endArrow=classic;html=1;rounded=0;exitX=1;exitY=0.5;exitDx=0;exitDy=0;exitPerimeter=0;entryX=0.586;entryY=1.078;entryDx=0;entryDy=0;entryPerimeter=0;" parent="1" source="MzwR7XX259GG3YpAv0yA-9" target="Qg8Gm3xI18R2EqKsObhd-104" edge="1">
          <mxGeometry width="50" height="50" relative="1" as="geometry">
            <mxPoint x="1835" y="1280" as="sourcePoint" />
            <mxPoint x="1931" y="947" as="targetPoint" />
            <Array as="points">
              <mxPoint x="1895" y="1300" />
              <mxPoint x="1965" y="1310" />
              <mxPoint x="2035" y="1280" />
              <mxPoint x="2105" y="1220" />
            </Array>
          </mxGeometry>
        </mxCell>
        <mxCell id="Qg8Gm3xI18R2EqKsObhd-104" value="The target areas overlap and have the highest priority." style="text;html=1;align=center;verticalAlign=middle;resizable=0;points=[];autosize=1;strokeColor=#6c8ebf;fillColor=#dae8fc;" parent="1" vertex="1">
          <mxGeometry x="2045" y="1030" width="310" height="30" as="geometry" />
        </mxCell>
        <mxCell id="Qg8Gm3xI18R2EqKsObhd-106" value="The target areas overlap and have the lowest priority." style="text;html=1;align=center;verticalAlign=middle;resizable=0;points=[];autosize=1;strokeColor=#6c8ebf;fillColor=#dae8fc;" parent="1" vertex="1">
          <mxGeometry x="1830" y="970" width="310" height="30" as="geometry" />
        </mxCell>
        <mxCell id="Qg8Gm3xI18R2EqKsObhd-107" value="" style="curved=1;endArrow=classic;html=1;rounded=0;exitX=1;exitY=0.5;exitDx=0;exitDy=0;exitPerimeter=0;entryX=0.557;entryY=0.962;entryDx=0;entryDy=0;entryPerimeter=0;" parent="1" source="MzwR7XX259GG3YpAv0yA-9" target="Qg8Gm3xI18R2EqKsObhd-106" edge="1">
          <mxGeometry width="50" height="50" relative="1" as="geometry">
            <mxPoint x="1835" y="1280" as="sourcePoint" />
            <mxPoint x="1931" y="947" as="targetPoint" />
            <Array as="points">
              <mxPoint x="1895" y="1300" />
              <mxPoint x="1965" y="1310" />
              <mxPoint x="2035" y="1280" />
              <mxPoint x="2105" y="1220" />
            </Array>
          </mxGeometry>
        </mxCell>
        <mxCell id="Qg8Gm3xI18R2EqKsObhd-108" value="" style="curved=1;endArrow=classic;html=1;rounded=0;exitX=0.47;exitY=0.129;exitDx=0;exitDy=0;exitPerimeter=0;entryX=0.855;entryY=0.855;entryDx=0;entryDy=0;entryPerimeter=0;" parent="1" source="Qg8Gm3xI18R2EqKsObhd-109" target="NvxcnexAdf7WvvJ3q8dT-249" edge="1">
          <mxGeometry width="50" height="50" relative="1" as="geometry">
            <mxPoint x="1647" y="1170" as="sourcePoint" />
            <mxPoint x="1738" y="842" as="targetPoint" />
            <Array as="points" />
          </mxGeometry>
        </mxCell>
        <mxCell id="Qg8Gm3xI18R2EqKsObhd-110" value="" style="curved=1;endArrow=classic;html=1;rounded=0;exitX=0.47;exitY=0.129;exitDx=0;exitDy=0;exitPerimeter=0;entryX=0.855;entryY=0.855;entryDx=0;entryDy=0;entryPerimeter=0;" parent="1" source="Qg8Gm3xI18R2EqKsObhd-106" target="Qg8Gm3xI18R2EqKsObhd-109" edge="1">
          <mxGeometry width="50" height="50" relative="1" as="geometry">
            <mxPoint x="1980" y="974" as="sourcePoint" />
            <mxPoint x="1733" y="871" as="targetPoint" />
            <Array as="points" />
          </mxGeometry>
        </mxCell>
        <mxCell id="Qg8Gm3xI18R2EqKsObhd-109" value="Move back" style="text;html=1;align=center;verticalAlign=middle;resizable=0;points=[];autosize=1;strokeColor=#6c8ebf;fillColor=#dae8fc;" parent="1" vertex="1">
          <mxGeometry x="1800" y="900" width="80" height="30" as="geometry" />
        </mxCell>
      </root>
    </mxGraphModel>
  </diagram>
</mxfile>
